<svg width="96" height="70" viewBox="0 0 96 70" fill="none" xmlns="http://www.w3.org/2000/svg">
<path d="M96 64.8701C96 71.3103 90.8224 69.8602 84.4139 69.8602H11.5861C5.17754 69.8602 0 71.3103 0 64.8701C0 58.4299 5.17754 59.8801 11.5861 59.8801H84.4139C90.8224 59.8801 96 58.4299 96 64.8701Z" fill="#190784"/>
<path d="M96 64.8701C96 71.3103 90.8224 69.8602 84.4139 69.8602H11.5861C5.17754 69.8602 0 71.3103 0 64.8701C0 58.4299 5.17754 59.8801 11.5861 59.8801H84.4139C90.8224 59.8801 96 58.4299 96 64.8701Z" fill="#190784"/>
<path d="M96 35.0699C96 41.5102 90.8224 40.06 84.4139 40.06H11.5861C5.17754 40.06 0 41.5102 0 35.0699C0 28.6297 5.17754 30.0799 11.5861 30.0799H84.4139C90.8224 30.0799 96 28.6297 96 35.0699Z" fill="#190784"/>
<path d="M96 35.0699C96 41.5102 90.8224 40.06 84.4139 40.06H11.5861C5.17754 40.06 0 41.5102 0 35.0699C0 28.6297 5.17754 30.0799 11.5861 30.0799H84.4139C90.8224 30.0799 96 28.6297 96 35.0699Z" fill="#190784"/>
<path d="M96 5.12985C96 11.5701 90.8224 10.1199 84.4139 10.1199H11.5861C5.17754 10.1199 0 11.5701 0 5.12985C0 -1.31039 5.17754 0.139832 11.5861 0.139832H84.4139C90.8224 0.139832 96 -1.31039 96 5.12985Z" fill="#190784"/>
<path d="M96 5.12985C96 11.5701 90.8224 10.1199 84.4139 10.1199H11.5861C5.17754 10.1199 0 11.5701 0 5.12985C0 -1.31039 5.17754 0.139832 11.5861 0.139832H84.4139C90.8224 0.139832 96 -1.31039 96 5.12985Z" fill="#190784"/>
</svg>
