<svg xmlns="http://www.w3.org/2000/svg" xmlns:xlink="http://www.w3.org/1999/xlink" xmlns:serif="http://www.serif.com/" width="100%" height="100%" viewBox="0 0 34725 34725" xml:space="preserve" style="fill-rule:evenodd;clip-rule:evenodd;stroke-linejoin:round;stroke-miterlimit:2;"><g id="Layer_2"><g id="rays"><path d="M0.021,21247.8l-0,-2377.25l10844.5,-5857.12l-10844.5,8234.38l-0,0.004Z" style="fill:none;fill-rule:nonzero;"></path><path d="M0.021,8457.15l-0,-2122.42l10844.5,6678.67l-10844.5,-4556.25Z" style="fill:none;fill-rule:nonzero;"></path><path d="M0.021,17441.2l-0,-1849.67l10844.5,-2578.12l-10844.5,4427.79Z" style="fill:none;fill-rule:nonzero;"></path><path d="M0.021,14385.2l-0,-1679.86l10844.5,307.983l-10844.5,1371.88Z" style="fill:none;fill-rule:nonzero;"></path><path d="M0.021,11529.9l-0,-1754.86l10844.5,3238.37l-10844.5,-1483.5Z" style="fill:none;fill-rule:nonzero;"></path><path d="M12624.8,-0l2105.73,-0l-3886.11,13013.4l1780.38,-13013.4Z" style="fill:none;fill-rule:nonzero;"></path><path d="M0.021,4604.67l-0,-3069.79l10844.5,11478.5l-10844.5,-8408.67Z" style="fill:none;fill-rule:nonzero;"></path><path d="M20935.1,-0l3683.68,-0l-13774.3,13013.4l10090.6,-13013.4l-0.017,-0Z" style="fill:none;fill-rule:nonzero;"></path><path d="M9198.27,-0l2015.8,-0l-369.621,13013.4l-1646.18,-13013.4Z" style="fill:none;fill-rule:nonzero;"></path><path d="M5531.05,-0l2219.62,-0l3093.75,13013.4l-5313.38,-13013.4Z" style="fill:none;fill-rule:nonzero;"></path><path d="M963.183,-0l2852.96,-0l7028.29,13013.4l-9881.25,-13013.4Z" style="fill:none;fill-rule:nonzero;"></path><path d="M16312.1,-0l2546.71,-0l-8014.42,13013.4l5467.71,-13013.4Z" style="fill:none;fill-rule:nonzero;"></path><path d="M34722.2,16280l0,3863.89l-23877.8,-7130.54l23877.8,3266.67l0,-0.016Z" style="fill:none;fill-rule:nonzero;"></path><path d="M34722.2,9992.71l0,3698.78l-23877.8,-678.125l23877.8,-3020.66Z" style="fill:none;fill-rule:nonzero;"></path><path d="M7874.65,34722.2l-3512.85,0l6482.62,-21708.8l-2969.79,21708.8l0.013,0Z" style="fill:none;fill-rule:nonzero;"></path><path d="M1723.44,34722.2l-1723.44,0l0,-4099.82l10844.5,-17609l-9121,21708.8l-0.021,0.033Z" style="fill:none;fill-rule:nonzero;"></path><path d="M34722.2,23045.7l0,4672.92l-23877.8,-14705.2l23877.8,10032.3Z" style="fill:none;fill-rule:nonzero;"></path><path d="M13590.8,34722.2l-3362.85,0l616.491,-21708.8l2746.35,21708.8Z" style="fill:none;fill-rule:nonzero;"></path><path d="M19708.1,34722.2l-3702.6,0l-5161.12,-21708.8l8863.71,21708.8l0.021,0Z" style="fill:none;fill-rule:nonzero;"></path><path d="M27328.5,34722.2l-4759.21,0l-11724.8,-21708.8l16484,21708.8Z" style="fill:none;fill-rule:nonzero;"></path><path d="M34722.2,3264.24l0,4072.57l-23877.8,5676.58l23877.8,-9749.12l0,-0.025Z" style="fill:none;fill-rule:nonzero;"></path><path d="M27982.8,-0l6739.42,-0l0,117.187l-23877.8,12896.2l17138.4,-13013.4l0,0.021Z" style="fill:none;fill-rule:nonzero;"></path><path d="M0.021,26999.1l-0,-3740.28l10844.5,-10245.5l-10844.5,13985.8l-0,0.029Z" style="fill:none;fill-rule:nonzero;"></path><path d="M10844.4,13013.4l23877.8,18514.8l0,3194.1l-3368.05,-0l-20509.7,-21708.8l-0.03,-0.012Z" style="fill:none;fill-rule:nonzero;"></path><g><path d="M16005.6,34722.2l-2414.77,0l-2746.35,-21708.8l5161.12,21708.8Z" style="fill:url(#_Radial1);fill-rule:nonzero;"></path></g><g><path d="M7750.69,-0l1447.57,-0l1646.18,13013.4l-3093.75,-13013.4Z" style="fill:url(#_Radial2);fill-rule:nonzero;"></path></g><g><path d="M10228,34722.2l-2353.3,0l2969.79,-21708.8l-616.492,21708.8Z" style="fill:url(#_Radial3);fill-rule:nonzero;"></path></g><g><path d="M11214.1,-0l1410.76,-0l-1780.38,13013.4l369.62,-13013.4Z" style="fill:url(#_Radial4);fill-rule:nonzero;"></path></g><g><path d="M4361.82,34722.2l-2638.38,0l9121,-21708.8l-6482.62,21708.8Z" style="fill:url(#_Radial5);fill-rule:nonzero;"></path></g><g><path d="M14730.6,-0l1581.6,-0l-5467.71,13013.4l3886.11,-13013.4Z" style="fill:url(#_Radial6);fill-rule:nonzero;"></path></g><g><path d="M0.021,30622.4l-0,-3623.29l10844.5,-13985.8l-10844.5,17609Z" style="fill:url(#_Radial7);fill-rule:nonzero;"></path></g><g><path d="M18858.9,-0l2076.21,-0l-10090.6,13013.4l8014.42,-13013.4l-0.004,-0Z" style="fill:url(#_Radial8);fill-rule:nonzero;"></path></g><g><path d="M0.021,23258.8l-0,-2011.12l10844.5,-8234.38l-10844.5,10245.5Z" style="fill:url(#_Radial9);fill-rule:nonzero;"></path></g><g><path d="M24618.8,-0l3364.08,-0l-17138.4,13013.4l13774.3,-13013.4Z" style="fill:url(#_Radial10);fill-rule:nonzero;"></path></g><g><path d="M0.021,18870.5l-0,-1429.34l10844.5,-4427.79l-10844.5,5857.12l-0,0.008Z" style="fill:url(#_Radial11);fill-rule:nonzero;"></path></g><g><path d="M34722.2,117.187l0,3147.05l-23877.8,9749.12l23877.8,-12896.2l0,-0.009Z" style="fill:url(#_Radial12);fill-rule:nonzero;"></path></g><g><path d="M0.021,15591.5l-0,-1206.25l10844.5,-1371.88l-10844.5,2578.12Z" style="fill:url(#_Radial13);fill-rule:nonzero;"></path></g><g><path d="M34722.2,7336.77l0,2655.93l-23877.8,3020.66l23877.8,-5676.58Z" style="fill:url(#_Radial14);fill-rule:nonzero;"></path></g><g><path d="M0.021,12705.4l-0,-1175.52l10844.5,1483.5l-10844.5,-307.983Z" style="fill:url(#_Radial15);fill-rule:nonzero;"></path></g><g><path d="M34722.2,13691.5l0,2588.54l-23877.8,-3266.67l23877.8,678.125Z" style="fill:url(#_Radial16);fill-rule:nonzero;"></path></g><g><path d="M0.021,9775l-0,-1317.88l10844.5,4556.25l-10844.5,-3238.37Z" style="fill:url(#_Radial17);fill-rule:nonzero;"></path></g><g><path d="M34722.2,20143.9l0,2901.75l-23877.8,-10032.3l23877.8,7130.54Z" style="fill:url(#_Radial18);fill-rule:nonzero;"></path></g><g><path d="M0.021,6334.71l-0,-1730.03l10844.5,8408.67l-10844.5,-6678.67l-0,0.033Z" style="fill:url(#_Radial19);fill-rule:nonzero;"></path></g><g><path d="M34722.2,27718.6l0,3809.55l-23877.8,-18514.8l23877.8,14705.2l0,-0.009Z" style="fill:url(#_Radial20);fill-rule:nonzero;"></path></g><g><path d="M0.021,1534.9l-0,-1534.9l963.191,-0l9881.25,13013.4l-10844.5,-11478.5l0.017,-0.021Z" style="fill:url(#_Radial21);fill-rule:nonzero;"></path></g><g><path d="M31354.2,34722.2l-4025.7,0l-16484,-21708.8l20509.7,21708.8l0.029,0Z" style="fill:url(#_Radial22);fill-rule:nonzero;"></path></g><g><path d="M3816.15,-0l1714.93,-0l5313.38,13013.4l-7028.29,-13013.4l-0.012,-0Z" style="fill:url(#_Radial23);fill-rule:nonzero;"></path></g><g><path d="M22569.3,34722.2l-2861.12,0l-8863.71,-21708.8l11724.8,21708.8Z" style="fill:url(#_Radial24);fill-rule:nonzero;"></path></g></g></g><defs><radialGradient id="_Radial1" cx="0" cy="0" r="1" gradientUnits="userSpaceOnUse" gradientTransform="matrix(-12080.2,0,0,12080.2,14723.4,29651.2)"><stop offset="0" style="stop-color:#fff;stop-opacity:1"></stop><stop offset="1" style="stop-color:#fff;stop-opacity:1"></stop></radialGradient><radialGradient id="_Radial2" cx="0" cy="0" r="1" gradientUnits="userSpaceOnUse" gradientTransform="matrix(-9.05496e+06,0,0,9.05496e+06,-4.93536e+06,-2.71667e+06)"><stop offset="0" style="stop-color:#fff;stop-opacity:1"></stop><stop offset="1" style="stop-color:#fff;stop-opacity:1"></stop></radialGradient><radialGradient id="_Radial3" cx="0" cy="0" r="1" gradientUnits="userSpaceOnUse" gradientTransform="matrix(-1.49578e+07,0,0,1.49578e+07,-4.46253e+06,3.7247e+07)"><stop offset="0" style="stop-color:#fff;stop-opacity:1"></stop><stop offset="1" style="stop-color:#fff;stop-opacity:1"></stop></radialGradient><radialGradient id="_Radial4" cx="0" cy="0" r="1" gradientUnits="userSpaceOnUse" gradientTransform="matrix(-8.96646e+06,0,0,8.96646e+06,-2.20294e+06,-2.81102e+06)"><stop offset="0" style="stop-color:#fff;stop-opacity:1"></stop><stop offset="1" style="stop-color:#fff;stop-opacity:1"></stop></radialGradient><radialGradient id="_Radial5" cx="0" cy="0" r="1" gradientUnits="userSpaceOnUse" gradientTransform="matrix(-1.53252e+07,0,0,1.53252e+07,-1.59466e+07,3.63788e+07)"><stop offset="0" style="stop-color:#fff;stop-opacity:1"></stop><stop offset="1" style="stop-color:#fff;stop-opacity:1"></stop></radialGradient><radialGradient id="_Radial6" cx="0" cy="0" r="1" gradientUnits="userSpaceOnUse" gradientTransform="matrix(-9.18667e+06,0,0,9.18667e+06,-5.45786e+06,-2.29048e+06)"><stop offset="0" style="stop-color:#fff;stop-opacity:1"></stop><stop offset="1" style="stop-color:#fff;stop-opacity:1"></stop></radialGradient><radialGradient id="_Radial7" cx="0" cy="0" r="1" gradientUnits="userSpaceOnUse" gradientTransform="matrix(-1.26178e+07,0,0,1.26178e+07,-2.13231e+07,2.76958e+07)"><stop offset="0" style="stop-color:#fff;stop-opacity:1"></stop><stop offset="1" style="stop-color:#fff;stop-opacity:1"></stop></radialGradient><radialGradient id="_Radial8" cx="0" cy="0" r="1" gradientUnits="userSpaceOnUse" gradientTransform="matrix(-9.32471e+06,0,0,9.32471e+06,-7.88444e+06,-949196)"><stop offset="0" style="stop-color:#fff;stop-opacity:1"></stop><stop offset="1" style="stop-color:#fff;stop-opacity:1"></stop></radialGradient><radialGradient id="_Radial9" cx="0" cy="0" r="1" gradientUnits="userSpaceOnUse" gradientTransform="matrix(-7.78967e+06,0,0,7.78967e+06,-2.3247e+07,1.44894e+07)"><stop offset="0" style="stop-color:#fff;stop-opacity:1"></stop><stop offset="1" style="stop-color:#fff;stop-opacity:1"></stop></radialGradient><radialGradient id="_Radial10" cx="0" cy="0" r="1" gradientUnits="userSpaceOnUse" gradientTransform="matrix(-1.23107e+07,0,0,1.23107e+07,-1.03584e+07,1.12162e+06)"><stop offset="0" style="stop-color:#fff;stop-opacity:1"></stop><stop offset="1" style="stop-color:#fff;stop-opacity:1"></stop></radialGradient><radialGradient id="_Radial11" cx="0" cy="0" r="1" gradientUnits="userSpaceOnUse" gradientTransform="matrix(-7.70833e+06,0,0,7.70833e+06,-2.46024e+07,7.092e+06)"><stop offset="0" style="stop-color:#fff;stop-opacity:1"></stop><stop offset="1" style="stop-color:#fff;stop-opacity:1"></stop></radialGradient><radialGradient id="_Radial12" cx="0" cy="0" r="1" gradientUnits="userSpaceOnUse" gradientTransform="matrix(-1.69726e+07,0,0,1.69726e+07,-1.14517e+07,3.74685e+06)"><stop offset="0" style="stop-color:#fff;stop-opacity:1"></stop><stop offset="1" style="stop-color:#fff;stop-opacity:1"></stop></radialGradient><radialGradient id="_Radial13" cx="0" cy="0" r="1" gradientUnits="userSpaceOnUse" gradientTransform="matrix(-7.54567e+06,0,0,7.54567e+06,-2.52967e+07,2.5215e+06)"><stop offset="0" style="stop-color:#fff;stop-opacity:1"></stop><stop offset="1" style="stop-color:#fff;stop-opacity:1"></stop></radialGradient><radialGradient id="_Radial14" cx="0" cy="0" r="1" gradientUnits="userSpaceOnUse" gradientTransform="matrix(-1.66146e+07,0,0,1.66146e+07,-9.92278e+06,2.99406e+06)"><stop offset="0" style="stop-color:#fff;stop-opacity:1"></stop><stop offset="1" style="stop-color:#fff;stop-opacity:1"></stop></radialGradient><radialGradient id="_Radial15" cx="0" cy="0" r="1" gradientUnits="userSpaceOnUse" gradientTransform="matrix(-7.47204e+06,0,0,7.47204e+06,-2.53754e+07,929288)"><stop offset="0" style="stop-color:#fff;stop-opacity:1"></stop><stop offset="1" style="stop-color:#fff;stop-opacity:1"></stop></radialGradient><radialGradient id="_Radial16" cx="0" cy="0" r="1" gradientUnits="userSpaceOnUse" gradientTransform="matrix(-1.64523e+07,0,0,1.64523e+07,-9.74969e+06,2.88931e+06)"><stop offset="0" style="stop-color:#fff;stop-opacity:1"></stop><stop offset="1" style="stop-color:#fff;stop-opacity:1"></stop></radialGradient><radialGradient id="_Radial17" cx="0" cy="0" r="1" gradientUnits="userSpaceOnUse" gradientTransform="matrix(-7.65554e+06,0,0,7.65554e+06,-2.49416e+07,1.71888e+06)"><stop offset="0" style="stop-color:#fff;stop-opacity:1"></stop><stop offset="1" style="stop-color:#fff;stop-opacity:1"></stop></radialGradient><radialGradient id="_Radial18" cx="0" cy="0" r="1" gradientUnits="userSpaceOnUse" gradientTransform="matrix(-1.68563e+07,0,0,1.68563e+07,-1.07048e+07,1.12867e+07)"><stop offset="0" style="stop-color:#fff;stop-opacity:1"></stop><stop offset="1" style="stop-color:#fff;stop-opacity:1"></stop></radialGradient><radialGradient id="_Radial19" cx="0" cy="0" r="1" gradientUnits="userSpaceOnUse" gradientTransform="matrix(-7.77058e+06,0,0,7.77058e+06,-2.38238e+07,1.33023e+06)"><stop offset="0" style="stop-color:#fff;stop-opacity:1"></stop><stop offset="1" style="stop-color:#fff;stop-opacity:1"></stop></radialGradient><radialGradient id="_Radial20" cx="0" cy="0" r="1" gradientUnits="userSpaceOnUse" gradientTransform="matrix(-1.71096e+07,0,0,1.71096e+07,-1.31661e+07,2.48504e+07)"><stop offset="0" style="stop-color:#fff;stop-opacity:1"></stop><stop offset="1" style="stop-color:#fff;stop-opacity:1"></stop></radialGradient><radialGradient id="_Radial21" cx="0" cy="0" r="1" gradientUnits="userSpaceOnUse" gradientTransform="matrix(-9.34762e+06,0,0,9.34762e+06,-2.20982e+07,-257014)"><stop offset="0" style="stop-color:#fff;stop-opacity:1"></stop><stop offset="1" style="stop-color:#fff;stop-opacity:1"></stop></radialGradient><radialGradient id="_Radial22" cx="0" cy="0" r="1" gradientUnits="userSpaceOnUse" gradientTransform="matrix(-1.55937e+07,0,0,1.55937e+07,-1.45712e+07,3.29866e+07)"><stop offset="0" style="stop-color:#fff;stop-opacity:1"></stop><stop offset="1" style="stop-color:#fff;stop-opacity:1"></stop></radialGradient><radialGradient id="_Radial23" cx="0" cy="0" r="1" gradientUnits="userSpaceOnUse" gradientTransform="matrix(-9.24992e+06,0,0,9.24992e+06,-1.28819e+07,-1.88343e+06)"><stop offset="0" style="stop-color:#fff;stop-opacity:1"></stop><stop offset="1" style="stop-color:#fff;stop-opacity:1"></stop></radialGradient><radialGradient id="_Radial24" cx="0" cy="0" r="1" gradientUnits="userSpaceOnUse" gradientTransform="matrix(-1.54309e+07,0,0,1.54309e+07,-1.0721e+07,3.56995e+07)"><stop offset="0" style="stop-color:#fff;stop-opacity:1"></stop><stop offset="1" style="stop-color:#fff;stop-opacity:1"></stop></radialGradient></defs></svg>