<svg width="1207" height="253" viewBox="0 0 1207 253" fill="none" xmlns="http://www.w3.org/2000/svg">
<g filter="url(#filter0_d_42_287)">
<path d="M1026.29 185.353V195.69C1026.27 203.649 1023.64 211.381 1018.8 217.698C1013.95 224.016 1007.17 228.568 999.489 230.655L978.335 236.372H1195L1111.6 143.766L1194.98 51.1115H1025.34V185.353H1026.29Z" fill="#BFE0FF"/>
</g>
<g filter="url(#filter1_d_42_287)">
<path d="M954.941 235.276L997.631 223.748C1003.01 222.292 1007.86 219.324 1011.6 215.194C1015.34 211.065 1017.82 205.949 1018.74 200.454H954.941V235.276Z" fill="#BFE0FF"/>
</g>
<g filter="url(#filter2_d_42_287)">
<path d="M95.3786 143.766L12 236.372H228.784L207.606 230.655C200.711 228.786 194.521 224.923 189.812 219.55C185.104 214.177 182.087 207.534 181.14 200.454H180.901V198.238C180.901 197.381 180.901 196.547 180.901 195.69V185.353V51.04H12L95.3786 143.766Z" fill="#BFE0FF"/>
</g>
<g filter="url(#filter3_d_42_287)">
<path d="M209.369 223.748L252.083 235.276V200.454H188.286C189.209 205.944 191.685 211.055 195.421 215.183C199.157 219.311 203.997 222.283 209.369 223.748Z" fill="#BFE0FF"/>
</g>
<g filter="url(#filter4_d_42_287)">
<path d="M1018.17 8H187.977V193.308H1018.17V8Z" fill="#BFE0FF"/>
</g>
<defs>
<filter id="filter0_d_42_287" x="966.335" y="43.1115" width="240.665" height="209.26" filterUnits="userSpaceOnUse" color-interpolation-filters="sRGB">
<feFlood flood-opacity="0" result="BackgroundImageFix"/>
<feColorMatrix in="SourceAlpha" type="matrix" values="0 0 0 0 0 0 0 0 0 0 0 0 0 0 0 0 0 0 127 0" result="hardAlpha"/>
<feOffset dy="4"/>
<feGaussianBlur stdDeviation="6"/>
<feComposite in2="hardAlpha" operator="out"/>
<feColorMatrix type="matrix" values="0 0 0 0 0 0 0 0 0 0 0 0 0 0 0 0 0 0 0.25 0"/>
<feBlend mode="normal" in2="BackgroundImageFix" result="effect1_dropShadow_42_287"/>
<feBlend mode="normal" in="SourceGraphic" in2="effect1_dropShadow_42_287" result="shape"/>
</filter>
<filter id="filter1_d_42_287" x="942.941" y="192.454" width="87.7966" height="58.8227" filterUnits="userSpaceOnUse" color-interpolation-filters="sRGB">
<feFlood flood-opacity="0" result="BackgroundImageFix"/>
<feColorMatrix in="SourceAlpha" type="matrix" values="0 0 0 0 0 0 0 0 0 0 0 0 0 0 0 0 0 0 127 0" result="hardAlpha"/>
<feOffset dy="4"/>
<feGaussianBlur stdDeviation="6"/>
<feComposite in2="hardAlpha" operator="out"/>
<feColorMatrix type="matrix" values="0 0 0 0 0 0 0 0 0 0 0 0 0 0 0 0 0 0 0.25 0"/>
<feBlend mode="normal" in2="BackgroundImageFix" result="effect1_dropShadow_42_287"/>
<feBlend mode="normal" in="SourceGraphic" in2="effect1_dropShadow_42_287" result="shape"/>
</filter>
<filter id="filter2_d_42_287" x="0" y="43.04" width="240.784" height="209.332" filterUnits="userSpaceOnUse" color-interpolation-filters="sRGB">
<feFlood flood-opacity="0" result="BackgroundImageFix"/>
<feColorMatrix in="SourceAlpha" type="matrix" values="0 0 0 0 0 0 0 0 0 0 0 0 0 0 0 0 0 0 127 0" result="hardAlpha"/>
<feOffset dy="4"/>
<feGaussianBlur stdDeviation="6"/>
<feComposite in2="hardAlpha" operator="out"/>
<feColorMatrix type="matrix" values="0 0 0 0 0 0 0 0 0 0 0 0 0 0 0 0 0 0 0.25 0"/>
<feBlend mode="normal" in2="BackgroundImageFix" result="effect1_dropShadow_42_287"/>
<feBlend mode="normal" in="SourceGraphic" in2="effect1_dropShadow_42_287" result="shape"/>
</filter>
<filter id="filter3_d_42_287" x="176.286" y="192.454" width="87.7965" height="58.8227" filterUnits="userSpaceOnUse" color-interpolation-filters="sRGB">
<feFlood flood-opacity="0" result="BackgroundImageFix"/>
<feColorMatrix in="SourceAlpha" type="matrix" values="0 0 0 0 0 0 0 0 0 0 0 0 0 0 0 0 0 0 127 0" result="hardAlpha"/>
<feOffset dy="4"/>
<feGaussianBlur stdDeviation="6"/>
<feComposite in2="hardAlpha" operator="out"/>
<feColorMatrix type="matrix" values="0 0 0 0 0 0 0 0 0 0 0 0 0 0 0 0 0 0 0.25 0"/>
<feBlend mode="normal" in2="BackgroundImageFix" result="effect1_dropShadow_42_287"/>
<feBlend mode="normal" in="SourceGraphic" in2="effect1_dropShadow_42_287" result="shape"/>
</filter>
<filter id="filter4_d_42_287" x="175.977" y="0" width="854.189" height="209.308" filterUnits="userSpaceOnUse" color-interpolation-filters="sRGB">
<feFlood flood-opacity="0" result="BackgroundImageFix"/>
<feColorMatrix in="SourceAlpha" type="matrix" values="0 0 0 0 0 0 0 0 0 0 0 0 0 0 0 0 0 0 127 0" result="hardAlpha"/>
<feOffset dy="4"/>
<feGaussianBlur stdDeviation="6"/>
<feComposite in2="hardAlpha" operator="out"/>
<feColorMatrix type="matrix" values="0 0 0 0 0 0 0 0 0 0 0 0 0 0 0 0 0 0 0.25 0"/>
<feBlend mode="normal" in2="BackgroundImageFix" result="effect1_dropShadow_42_287"/>
<feBlend mode="normal" in="SourceGraphic" in2="effect1_dropShadow_42_287" result="shape"/>
</filter>
</defs>
</svg>
