<svg width="26" height="25" viewBox="0 0 26 25" fill="none" xmlns="http://www.w3.org/2000/svg">
<path d="M13 25C16.3152 25 19.4946 23.683 21.8388 21.3388C24.183 18.9946 25.5 15.8152 25.5 12.5C25.5 9.18479 24.183 6.00537 21.8388 3.66117C19.4946 1.31696 16.3152 0 13 0C9.68479 0 6.50537 1.31696 4.16117 3.66117C1.81696 6.00537 0.5 9.18479 0.5 12.5C0.5 15.8152 1.81696 18.9946 4.16117 21.3388C6.50537 23.683 9.68479 25 13 25ZM18.5176 10.2051L12.2676 16.4551C11.8086 16.9141 11.0664 16.9141 10.6123 16.4551L7.48731 13.3301C7.02832 12.8711 7.02832 12.1289 7.48731 11.6748C7.94629 11.2207 8.68848 11.2158 9.14258 11.6748L11.4375 13.9697L16.8574 8.54492C17.3164 8.08594 18.0586 8.08594 18.5127 8.54492C18.9668 9.00391 18.9717 9.74609 18.5127 10.2002L18.5176 10.2051Z" fill="#190784"/>
</svg>
