<svg width="165" height="166" viewBox="0 0 165 166" fill="none" xmlns="http://www.w3.org/2000/svg">
<path d="M82.5184 40.6961C59.1074 40.6961 40.2239 59.5837 40.2239 83C40.2239 106.416 59.1074 125.304 82.5184 125.304C105.929 125.304 124.813 106.416 124.813 83C124.813 59.5837 105.929 40.6961 82.5184 40.6961ZM82.5184 110.503C67.3896 110.503 55.0215 98.169 55.0215 83C55.0215 67.831 67.3528 55.4969 82.5184 55.4969C97.6841 55.4969 110.015 67.831 110.015 83C110.015 98.169 97.6472 110.503 82.5184 110.503ZM136.408 38.9656C136.408 44.4515 131.991 48.8329 126.543 48.8329C121.058 48.8329 116.678 44.4147 116.678 38.9656C116.678 33.5166 121.095 29.0984 126.543 29.0984C131.991 29.0984 136.408 33.5166 136.408 38.9656ZM164.42 48.9801C163.794 35.7625 160.776 24.0543 151.095 14.408C141.451 4.76169 129.745 1.74261 116.531 1.07988C102.911 0.306705 62.089 0.306705 48.4693 1.07988C35.2914 1.70579 23.5859 4.72487 13.9049 14.3712C4.22393 24.0175 1.24233 35.7257 0.579755 48.9433C-0.193252 62.566 -0.193252 103.397 0.579755 117.02C1.20552 130.238 4.22393 141.946 13.9049 151.592C23.5859 161.238 35.2546 164.257 48.4693 164.92C62.089 165.693 102.911 165.693 116.531 164.92C129.745 164.294 141.451 161.275 151.095 151.592C160.739 141.946 163.758 130.238 164.42 117.02C165.193 103.397 165.193 62.6028 164.42 48.9801ZM146.825 131.637C143.954 138.853 138.396 144.412 131.144 147.321C120.285 151.629 94.5184 150.635 82.5184 150.635C70.5184 150.635 44.7147 151.592 33.8926 147.321C26.6779 144.449 21.1196 138.89 18.2117 131.637C13.9049 120.775 14.8988 95.0027 14.8988 83C14.8988 70.9973 13.9417 45.1879 18.2117 34.3634C21.0828 27.147 26.6411 21.5875 33.8926 18.6789C44.7515 14.3712 70.5184 15.3653 82.5184 15.3653C94.5184 15.3653 120.322 14.408 131.144 18.6789C138.359 21.5507 143.917 27.1102 146.825 34.3634C151.132 45.2247 150.138 70.9973 150.138 83C150.138 95.0027 151.132 120.812 146.825 131.637Z" fill="#190784"/>
</svg>
