<svg width="1920" height="74" viewBox="0 0 1920 74" fill="none" xmlns="http://www.w3.org/2000/svg">
<path d="M-9 16.6997L31.1875 14.7178C71.375 12.736 151.75 8.77219 232.125 5.1057C312.5 1.53831 392.875 -1.8309 473.25 1.14193C553.625 4.11476 634 13.4296 714.375 16.6997C794.75 19.9698 875.125 17.3934 955.5 15.2133C1035.88 13.0332 1116.25 11.4477 1196.63 11.2495C1277 11.0514 1357.38 12.4387 1437.75 10.5559C1518.13 8.77219 1598.5 3.81747 1678.88 4.51113C1759.25 5.1057 1839.63 11.4477 1879.81 14.5197L1920 17.6907V73.1835H1879.81C1839.63 73.1835 1759.25 73.1835 1678.88 73.1835C1598.5 73.1835 1518.13 73.1835 1437.75 73.1835C1357.38 73.1835 1277 73.1835 1196.63 73.1835C1116.25 73.1835 1035.88 73.1835 955.5 73.1835C875.125 73.1835 794.75 73.1835 714.375 73.1835C634 73.1835 553.625 73.1835 473.25 73.1835C392.875 73.1835 312.5 73.1835 232.125 73.1835C151.75 73.1835 71.375 73.1835 31.1875 73.1835H-9V16.6997Z" fill="#9DC4FF"/>
<path d="M-9 27.6001L31.1875 29.0865C71.375 30.5729 151.75 33.5458 232.125 32.0593C312.5 30.5729 392.875 24.6273 473.25 23.1409C553.625 21.6544 634 24.6273 714.375 25.6182C794.75 26.6092 875.125 25.6182 955.5 25.3209C1035.88 24.9246 1116.25 25.3209 1196.63 26.9064C1277 28.591 1357.38 31.5639 1437.75 30.3747C1518.13 29.2847 1598.5 23.9336 1678.88 20.8617C1759.25 17.6907 1839.63 16.6997 1879.81 16.2043L1920 15.7088V73.1835H1879.81C1839.63 73.1835 1759.25 73.1835 1678.88 73.1835C1598.5 73.1835 1518.13 73.1835 1437.75 73.1835C1357.38 73.1835 1277 73.1835 1196.63 73.1835C1116.25 73.1835 1035.88 73.1835 955.5 73.1835C875.125 73.1835 794.75 73.1835 714.375 73.1835C634 73.1835 553.625 73.1835 473.25 73.1835C392.875 73.1835 312.5 73.1835 232.125 73.1835C151.75 73.1835 71.375 73.1835 31.1875 73.1835H-9V27.6001Z" fill="#8AACFF"/>
<path d="M-9 60.3012L31.1875 57.5266C71.375 54.6528 151.75 49.1036 232.125 49.1036C312.5 49.1036 392.875 54.6528 473.25 57.0311C553.625 59.3103 634 58.3193 714.375 57.5266C794.75 56.6347 875.125 56.0402 955.5 53.5628C1035.88 51.0854 1116.25 46.7253 1196.63 44.1488C1277 41.4733 1357.38 40.4824 1437.75 42.9597C1518.13 45.4371 1598.5 51.3827 1678.88 54.3556C1759.25 57.3284 1839.63 57.3284 1879.81 57.3284H1920V73.1835H1879.81C1839.63 73.1835 1759.25 73.1835 1678.88 73.1835C1598.5 73.1835 1518.13 73.1835 1437.75 73.1835C1357.38 73.1835 1277 73.1835 1196.63 73.1835C1116.25 73.1835 1035.88 73.1835 955.5 73.1835C875.125 73.1835 794.75 73.1835 714.375 73.1835C634 73.1835 553.625 73.1835 473.25 73.1835C392.875 73.1835 312.5 73.1835 232.125 73.1835C151.75 73.1835 71.375 73.1835 31.1875 73.1835H-9V60.3012Z" fill="#799AFF"/>
</svg>
