<svg width="166" height="166" viewBox="0 0 166 166" fill="none" xmlns="http://www.w3.org/2000/svg">
<path d="M140.787 24.4766C125.355 9.00781 104.804 0.5 82.9632 0.5C37.8828 0.5 1.19978 37.183 1.19978 82.2634C1.19978 96.6641 4.95647 110.733 12.1016 123.145L0.5 165.5L43.8493 154.119C55.7824 160.638 69.2254 164.064 82.9263 164.064H82.9632C128.007 164.064 165.5 127.381 165.5 82.3002C165.5 60.4598 156.219 39.9453 140.787 24.4766ZM82.9632 150.289C70.7355 150.289 58.7656 147.011 48.3426 140.824L45.875 139.35L20.1674 146.09L27.0179 121.009L25.3973 118.431C18.5837 107.603 15.0112 95.1172 15.0112 82.2634C15.0112 44.8069 45.5067 14.3114 83 14.3114C101.157 14.3114 118.21 21.3828 131.027 34.2366C143.844 47.0904 151.725 64.1429 151.689 82.3002C151.689 119.794 120.42 150.289 82.9632 150.289ZM120.235 99.3895C118.21 98.3583 108.155 93.423 106.277 92.76C104.398 92.0603 103.036 91.7288 101.673 93.7913C100.31 95.8538 96.4062 100.421 95.1908 101.82C94.0123 103.183 92.7969 103.367 90.7712 102.336C78.7645 96.3326 70.8828 91.6183 62.9643 78.0279C60.865 74.4185 65.0636 74.6763 68.9676 66.8683C69.6306 65.5056 69.2991 64.327 68.7835 63.2958C68.2679 62.2645 64.1797 52.2098 62.4855 48.1217C60.8281 44.144 59.1339 44.6964 57.8817 44.6228C56.7031 44.5491 55.3404 44.5491 53.9777 44.5491C52.615 44.5491 50.4051 45.0647 48.5268 47.0904C46.6484 49.1529 41.3817 54.0882 41.3817 64.1429C41.3817 74.1975 48.7109 83.9208 49.7054 85.2835C50.7366 86.6462 64.106 107.271 84.6205 116.147C97.5848 121.746 102.667 122.224 109.15 121.267C113.09 120.677 121.23 116.331 122.924 111.544C124.618 106.756 124.618 102.667 124.103 101.82C123.624 100.9 122.261 100.384 120.235 99.3895Z" fill="#190784"/>
</svg>
